<?xml version="1.0" encoding="UTF-8" standalone="no"?>
<!-- Created with Inkscape (http://www.inkscape.org/) -->

<svg
   xmlns:dc="http://purl.org/dc/elements/1.1/"
   xmlns:cc="http://creativecommons.org/ns#"
   xmlns:rdf="http://www.w3.org/1999/02/22-rdf-syntax-ns#"
   xmlns:svg="http://www.w3.org/2000/svg"
   xmlns="http://www.w3.org/2000/svg"
   xmlns:sodipodi="http://sodipodi.sourceforge.net/DTD/sodipodi-0.dtd"
   xmlns:inkscape="http://www.inkscape.org/namespaces/inkscape"
   width="778mm"
   height="778mm"
   id="svg3545"
   version="1.1"
   inkscape:version="0.92.2 (5c3e80d, 2017-08-06)"
   viewBox="0 0 2756.693 2756.6932"
   sodipodi:docname="atomic-logo.svg"
   inkscape:export-filename="/home/tigert/SparkleShare/scratch-public/atomic-swag/atomic-shirt-front.png"
   inkscape:export-xdpi="300"
   inkscape:export-ydpi="300">
  <defs
     id="defs3547" />
  <sodipodi:namedview
     id="base"
     pagecolor="#000000"
     bordercolor="#666666"
     borderopacity="1.0"
     inkscape:pageopacity="0"
     inkscape:pageshadow="2"
     inkscape:zoom="0.35"
     inkscape:cx="1081.3877"
     inkscape:cy="1403.4338"
     inkscape:document-units="px"
     inkscape:current-layer="g3408"
     showgrid="false"
     units="mm"
     fit-margin-top="30"
     fit-margin-left="30"
     fit-margin-right="30"
     fit-margin-bottom="30"
     inkscape:window-width="3200"
     inkscape:window-height="1671"
     inkscape:window-x="0"
     inkscape:window-y="55"
     inkscape:window-maximized="1" />
  <metadata
     id="metadata3550">
    <rdf:RDF>
      <cc:Work
         rdf:about="">
        <dc:format>image/svg+xml</dc:format>
        <dc:type
           rdf:resource="http://purl.org/dc/dcmitype/StillImage" />
        <dc:title></dc:title>
      </cc:Work>
    </rdf:RDF>
  </metadata>
  <g
     inkscape:label="Layer 1"
     inkscape:groupmode="layer"
     id="layer1"
     transform="translate(117.32506,1598.0266)">
    <g
       transform="matrix(5.4953312,0,0,5.4953312,-656.96487,-1038.7447)"
       id="g3408">
      <path
         style="fill:#46d200;stroke:none;stroke-width:6.82397461;stroke-miterlimit:4;stroke-dasharray:none;stroke-opacity:1"
         inkscape:connector-curvature="0"
         id="path3440"
         d="m 347.42788,124.56526 c -14.49081,0 -36.55818,-1.29417 -36.55818,-1.29417 -2.31012,-0.13642 -3.09272,-1.77702 -1.72855,-3.65275 0,0 13.69383,-18.85079 23.62181,-30.659913 4.90387,-5.806731 11.84322,-13.496389 11.84322,-13.496389 1.55446,-1.723173 4.08894,-1.719583 5.64519,0 0,0 6.92678,7.689658 11.83962,13.496389 9.93516,11.809123 23.63259,30.659913 23.63259,30.659913 1.36058,1.87573 0.58336,3.51633 -1.72856,3.65275 -0.002,0 -22.08353,1.29417 -36.56714,1.29417 z" />
      <path
         style="fill:#ffffff;stroke:#fffdfd;stroke-width:6.82397461;stroke-miterlimit:4;stroke-dasharray:none;stroke-opacity:1"
         inkscape:connector-curvature="0"
         id="path3442"
         d="m 561.81918,107.49509 c -0.0826,-20.995783 -50.92871,-39.033438 -124.19942,-47.243635 -4.38511,-0.193856 -6.67011,3.042475 -6.73472,6.15316 -0.12565,2.475265 1.58855,5.52133 4.69923,6.029307 0.58336,0.09514 1.08236,0.217192 1.73573,0.315915 59.03659,6.16752 99.23317,18.271011 99.29598,32.252043 0.0663,13.63101 -38.00671,25.56398 -94.5734,32.00791 -14.77979,-24.14415 -32.81745,-50.070718 -53.41295,-76.239587 -9.71258,-12.34581 -19.50774,-24.099277 -29.23289,-35.211939 50.16405,-55.793074 94.37237,-89.691094 107.15437,-79.689519 9.88669,7.736324 -1.37854,40.44787 -26.6266,83.381773 -0.788,1.383922 -1.44136,5.45671 1.68548,7.572981 2.94913,1.999597 6.92679,0.893896 8.66253,-1.904464 0.2495,-0.430793 0.70901,-1.089547 0.9567,-1.520339 31.11403,-54.375048 43.70396,-97.206638 28.76621,-108.895487 -18.24767,-14.277197 -71.87421,22.142759 -130.17306,85.1193056 v -0.01795 c -0.79517,0.8633794 -1.59573,1.7124004 -2.39808,2.5865504 -0.79877,-0.87415 -1.59932,-1.723171 -2.3945,-2.5865504 v 0.01795 C 286.73094,-53.352237 233.10619,-89.773988 214.85673,-75.496791 c -14.93596,11.688849 -2.34783,54.520439 28.76979,108.895487 0.24771,0.428997 0.70542,1.087751 0.95312,1.520339 1.73574,2.79836 5.71339,3.904061 8.66612,1.904464 3.12325,-2.116271 2.47347,-6.189059 1.68368,-7.572981 -25.24806,-42.933903 -36.51329,-75.647243 -26.62659,-83.381773 12.78557,-10.001575 56.99033,23.89465 107.15437,79.689519 -9.72157,11.110868 -19.52031,22.864336 -29.22752,35.211939 -20.60087,26.168869 -38.63315,52.093637 -53.41833,76.239587 -56.56669,-6.44393 -94.63983,-18.3769 -94.56981,-32.00791 0.0629,-13.981032 40.25759,-26.086317 99.29418,-32.252043 0.65517,-0.09873 1.15416,-0.220781 1.73394,-0.315915 3.11249,-0.507977 4.8249,-3.554042 4.69923,-6.029307 -0.0628,-3.108889 -2.34961,-6.347016 -6.73472,-6.15316 -73.2707,8.210197 -124.11505,26.247852 -124.19942,47.243635 -0.0843,19.6675 44.3663,36.84896 110.09274,45.87586 -30.7963,54.01067 -43.14211,96.46353 -28.27258,108.10211 16.10089,12.5971 59.77791,-14.29694 109.88271,-64.08225 1.67112,-1.52214 2.70862,-5.56081 -0.32846,-8.51892 -1.95114,-1.90627 -5.44237,-2.29937 -7.85301,-0.52593 -0.94236,0.69105 -1.84343,1.58136 -2.50039,2.20422 -39.07831,39.20933 -71.07545,60.94644 -81.62271,52.68957 -10.26362,-8.01453 2.22935,-42.37029 29.48419,-87.57841 25.49756,2.73732 53.58886,4.29536 83.10894,4.41024 v 0.003 c 0.41105,0 0.82032,0.003 1.23494,0.007 0.31592,0 0.63363,0.007 0.94954,0.007 0.07,0 0.1436,0 0.21002,0 0.0718,0 0.14359,0 0.2136,0 0.3195,0 0.63542,-0.007 0.95312,-0.007 0.41105,-0.003 0.82032,-0.007 1.23135,-0.007 v -0.003 c 29.5183,-0.11488 57.61139,-1.67292 83.10894,-4.41024 27.25483,45.20812 39.74962,79.56388 29.48419,87.57841 -10.54904,8.25687 -42.5426,-13.48024 -81.61911,-52.68957 -0.65875,-0.62286 -1.55983,-1.51317 -2.5004,-2.20422 -2.41424,-1.77344 -5.90365,-1.38034 -7.85479,0.52593 -3.0335,2.95811 -1.99961,6.99678 -0.32848,8.51892 50.10482,49.78531 93.78005,76.67756 109.88093,64.08225 14.86954,-11.63858 2.52372,-54.09144 -28.27259,-108.10211 65.73542,-9.0269 110.18608,-26.20836 110.10172,-45.87586 z m -213.70742,34.53523 c -0.22797,0 -0.45593,0.003 -0.68388,0.003 -0.22438,0 -0.45054,-0.003 -0.68029,-0.003 -26.43095,-0.0378 -51.57309,-1.14698 -74.40692,-3.08556 13.57536,-21.04243 29.83241,-43.847533 48.13034,-67.079844 8.21378,-10.434164 16.42398,-20.401636 24.56238,-29.916776 v 0.01974 c 0.79517,-0.93518 1.59932,-1.888309 2.39449,-2.812719 0.79876,0.926205 1.6029,1.879334 2.39807,2.812719 v -0.01974 c 8.1366,9.51514 16.3504,19.482612 24.56238,29.916776 18.29973,23.232311 34.55678,46.037414 48.13035,67.079844 -22.82844,1.94037 -47.97596,3.04787 -74.40692,3.08556 z" />
      <text
         xml:space="preserve"
         style="font-style:normal;font-weight:normal;font-size:8.04911327px;line-height:1.25;font-family:sans-serif;letter-spacing:0px;word-spacing:0px;opacity:1;vector-effect:none;fill:#46d200;fill-opacity:1;stroke:none;stroke-width:1.62083709;stroke-linecap:butt;stroke-linejoin:miter;stroke-miterlimit:4;stroke-dasharray:none;stroke-dashoffset:0;stroke-opacity:1"
         x="197.11717"
         y="338.37244"
         id="text27"
         transform="scale(1.0979915,0.91075387)"><tspan
           sodipodi:role="line"
           x="197.11717"
           y="338.37244"
           style="font-style:normal;font-variant:normal;font-weight:800;font-stretch:normal;font-size:40.24557114px;font-family:Overpass;-inkscape-font-specification:'Overpass Ultra-Bold';letter-spacing:9.56862164px;vector-effect:none;fill:#46d200;fill-opacity:1;stroke-width:1.62083709;stroke-linecap:butt;stroke-linejoin:miter;stroke-miterlimit:4;stroke-dasharray:none;stroke-dashoffset:0;stroke-opacity:1"
           id="tspan29">PROJECT</tspan></text>
      <text
         id="text35"
         y="403.60608"
         x="324.17657"
         style="font-style:normal;font-weight:normal;font-size:17.67894363px;line-height:1.25;font-family:sans-serif;letter-spacing:0px;word-spacing:0px;fill:#000000;fill-opacity:1;stroke:none;stroke-width:0.4419736"
         xml:space="preserve"
         transform="scale(1.0634429,0.94034197)"><tspan
           id="tspan33"
           style="font-style:normal;font-variant:normal;font-weight:800;font-stretch:normal;font-size:88.39471436px;font-family:Overpass;-inkscape-font-specification:'Overpass Ultra-Bold';text-align:center;letter-spacing:17.05993652px;text-anchor:middle;fill:#ffffff;stroke-width:0.4419736"
           y="403.60608"
           x="332.70654"
           sodipodi:role="line">ATOMIC</tspan></text>
    </g>
  </g>
</svg>
