<?xml version="1.0" encoding="UTF-8" standalone="no"?>
<!-- Created with Inkscape (http://www.inkscape.org/) -->

<svg
   xmlns:dc="http://purl.org/dc/elements/1.1/"
   xmlns:cc="http://creativecommons.org/ns#"
   xmlns:rdf="http://www.w3.org/1999/02/22-rdf-syntax-ns#"
   xmlns:svg="http://www.w3.org/2000/svg"
   xmlns="http://www.w3.org/2000/svg"
   xmlns:sodipodi="http://sodipodi.sourceforge.net/DTD/sodipodi-0.dtd"
   xmlns:inkscape="http://www.inkscape.org/namespaces/inkscape"
   width="735mm"
   height="735mm"
   id="svg3545"
   version="1.1"
   inkscape:version="0.92.2 (5c3e80d, 2017-08-06)"
   viewBox="0 0 2604.3308 2604.331"
   sodipodi:docname="fah.svg"
   inkscape:export-filename="/home/tigert/SparkleShare/scratch-public/atomic-swag/atomic-shirt-front.png"
   inkscape:export-xdpi="300"
   inkscape:export-ydpi="300">
  <defs
     id="defs3547" />
  <sodipodi:namedview
     id="base"
     pagecolor="#000000"
     bordercolor="#666666"
     borderopacity="1.0"
     inkscape:pageopacity="0"
     inkscape:pageshadow="2"
     inkscape:zoom="0.35"
     inkscape:cx="430.92567"
     inkscape:cy="1131.8725"
     inkscape:document-units="px"
     inkscape:current-layer="g3408"
     showgrid="false"
     units="mm"
     fit-margin-top="30"
     fit-margin-left="30"
     fit-margin-right="30"
     fit-margin-bottom="30"
     inkscape:window-width="3200"
     inkscape:window-height="1671"
     inkscape:window-x="0"
     inkscape:window-y="55"
     inkscape:window-maximized="1" />
  <metadata
     id="metadata3550">
    <rdf:RDF>
      <cc:Work
         rdf:about="">
        <dc:format>image/svg+xml</dc:format>
        <dc:type
           rdf:resource="http://purl.org/dc/dcmitype/StillImage" />
        <dc:title />
      </cc:Work>
    </rdf:RDF>
  </metadata>
  <g
     inkscape:label="Layer 1"
     inkscape:groupmode="layer"
     id="layer1"
     transform="translate(50.944625,1657.396)">
    <g
       transform="matrix(5.4953312,0,0,5.4953312,-656.96487,-1038.7447)"
       id="g3408">
      <path
         style="fill:#46d200;fill-opacity:1;stroke:none;stroke-width:6.82397486;stroke-miterlimit:4;stroke-dasharray:none;stroke-opacity:1;font-variant-east_asian:normal;opacity:1;vector-effect:none;stroke-linecap:butt;stroke-linejoin:miter;stroke-dashoffset:0"
         inkscape:connector-curvature="0"
         id="path3440"
         d="m 346.87913,112.54119 c -15.4596,0 -39.00229,-1.38069 -39.00229,-1.38069 -2.46457,-0.14554 -3.29949,-1.89583 -1.84412,-3.89696 0,0 14.60934,-20.111068 25.20106,-32.709697 5.23172,-6.194943 12.63501,-14.398697 12.63501,-14.398697 1.65838,-1.838377 4.36231,-1.834547 6.0226,0 0,0 7.38987,8.203754 12.63116,14.398697 10.59939,12.598629 25.21256,32.709697 25.21256,32.709697 1.45155,2.00113 0.62237,3.75142 -1.84412,3.89696 -0.002,0 -23.55994,1.38069 -39.01186,1.38069 z" />
      <path
         style="fill:#ffffff;stroke:#fffdfd;stroke-width:7.28019524;stroke-miterlimit:4;stroke-dasharray:none;stroke-opacity:1"
         inkscape:connector-curvature="0"
         id="path3442"
         d="M 575.60368,94.329785 C 575.51556,71.930318 521.2701,52.686746 443.10084,43.927651 c -4.67828,-0.206816 -7.11604,3.245882 -7.18497,6.564533 -0.13405,2.64075 1.69475,5.890462 5.0134,6.4324 0.62236,0.1015 1.15472,0.231712 1.85177,0.337035 62.98351,6.579853 105.86746,19.49253 105.93447,34.408271 0.0707,14.54232 -40.54767,27.27307 -100.89616,34.14782 C 432.05145,100.05939 412.80787,72.399483 390.83545,44.481081 380.47353,31.309885 370.02351,18.770633 359.64818,6.9150287 413.16597,-52.608121 460.32986,-88.772412 473.96641,-78.102176 c 10.54767,8.25354 -1.4707,43.152034 -28.40673,88.956306 -0.84069,1.476445 -1.53773,5.821522 1.79816,8.079277 3.1463,2.133281 7.38988,0.953658 9.24167,-2.031788 0.26618,-0.459594 0.75641,-1.162389 1.02066,-1.621982 33.19417,-58.010321 46.62581,-103.70544 30.68939,-116.175747 -19.46763,-15.23171 -76.6794,23.623119 -138.87585,90.809996 v -0.01915 c -0.84833,0.921101 -1.70241,1.8268838 -2.55841,2.7594756 -0.85217,-0.9325918 -1.70624,-1.8383746 -2.55458,-2.7594756 v 0.01915 C 282.12427,-77.271076 224.91441,-116.12782 205.44487,-100.89611 c -15.93451,12.470307 -2.5048,58.165426 30.69321,116.175747 0.26427,0.457678 0.75258,1.160473 1.01684,1.621982 1.85178,2.985446 6.09536,4.165069 9.2455,2.031788 3.33206,-2.257755 2.63883,-6.602832 1.79624,-8.079277 -26.93603,-45.804272 -38.9544,-80.70468 -28.40672,-88.956306 13.64035,-10.670236 60.80045,25.49214 114.31823,85.0172047 C 323.73666,18.76872 313.28282,31.307972 302.92663,44.481081 280.94848,72.399483 261.71064,100.05747 245.93699,125.81771 185.5885,118.94296 144.96996,106.21221 145.04466,91.66989 c 0.0671,-14.915741 42.94903,-27.830332 105.93255,-34.408271 0.69897,-0.10533 1.23132,-0.235541 1.84986,-0.337035 3.32058,-0.541938 5.14747,-3.79165 5.0134,-6.4324 -0.067,-3.316735 -2.50669,-6.771349 -7.18497,-6.564533 -78.16925,8.759095 -132.41283,28.002667 -132.50284,50.402134 -0.0899,20.982385 47.33243,39.312515 117.45305,48.942915 -32.85521,57.62158 -46.0264,102.91265 -30.16276,115.32934 17.17732,13.43928 63.77439,-15.25277 117.22898,-68.36651 1.78284,-1.6239 2.8897,-5.93258 -0.35042,-9.08845 -2.08159,-2.03372 -5.80623,-2.4531 -8.37803,-0.5611 -1.00536,0.73725 -1.96667,1.68709 -2.66755,2.35159 -41.69092,41.83069 -75.82724,65.02105 -87.07965,56.21216 -10.94979,-8.55035 2.3784,-45.20298 31.45538,-93.43351 27.20221,2.92032 57.17157,4.58253 88.66523,4.70509 v 0.003 c 0.43853,0 0.87516,0.003 1.3175,0.007 0.33704,0 0.67599,0.007 1.01302,0.007 0.0747,0 0.1532,0 0.22406,0 0.0766,0 0.15319,0 0.22789,0 0.34086,0 0.6779,-0.007 1.01684,-0.007 0.43853,-0.003 0.87516,-0.007 1.31367,-0.007 v -0.003 c 31.49176,-0.12256 61.46303,-1.78477 88.66523,-4.70509 29.07697,48.23053 42.4071,84.88316 31.45537,93.43351 -11.2543,8.80889 -45.38681,-14.38147 -87.0758,-56.21216 -0.70279,-0.6645 -1.66411,-1.61434 -2.66756,-2.35159 -2.57565,-1.892 -6.29834,-1.47262 -8.37993,0.5611 -3.2363,3.15587 -2.13329,7.46455 -0.35044,9.08845 53.45461,53.11374 100.04977,81.80388 117.22708,68.36651 15.86365,-12.41669 2.69244,-57.70776 -30.16277,-115.32934 70.1302,-9.6304 117.55263,-27.96053 117.46263,-48.942915 z M 347.60874,131.17389 c -0.24322,0 -0.48642,0.003 -0.72961,0.003 -0.23938,0 -0.48066,-0.003 -0.72577,-0.003 -28.198,-0.0403 -55.02103,-1.22366 -79.38143,-3.29185 14.48295,-22.44923 31.82687,-46.778984 51.34812,-71.564503 8.76292,-11.131746 17.52201,-21.765599 26.20451,-31.916879 v 0.02106 c 0.84833,-0.997702 1.70624,-2.014553 2.55457,-3.000765 0.85217,0.988127 1.71007,2.004978 2.5584,3.000765 v -0.02106 c 8.68058,10.15128 17.44351,20.785133 26.20451,31.916879 19.52317,24.785519 36.86709,49.115273 51.34813,71.564503 -24.35465,2.0701 -51.18342,3.25164 -79.38143,3.29185 z" />
      <text
         id="text35"
         y="364.72977"
         x="327.38501"
         style="font-style:normal;font-weight:normal;font-size:17.67894363px;line-height:1.25;font-family:sans-serif;letter-spacing:0px;word-spacing:0px;fill:#46d200;fill-opacity:1;stroke:none;stroke-width:6.82397489;font-variant-east_asian:normal;opacity:1;vector-effect:none;stroke-linecap:butt;stroke-linejoin:miter;stroke-miterlimit:4;stroke-dasharray:none;stroke-dashoffset:0;stroke-opacity:1;"
         xml:space="preserve"
         transform="scale(1.0634429,0.94034197)"><tspan
           id="tspan33"
           style="font-style:normal;font-variant:normal;font-weight:800;font-stretch:normal;font-size:88.39471436px;font-family:Overpass;-inkscape-font-specification:'Overpass Ultra-Bold';text-align:center;letter-spacing:17.05993652px;text-anchor:middle;fill:#46d200;fill-opacity:1;stroke-width:6.82397489;font-variant-east_asian:normal;vector-effect:none;stroke:none;stroke-linecap:butt;stroke-linejoin:miter;stroke-miterlimit:4;stroke-dasharray:none;stroke-dashoffset:0;stroke-opacity:1;"
           y="364.72977"
           x="335.91498"
           sodipodi:role="line">FAH</tspan></text>
    </g>
  </g>
</svg>
